<?xml version="1.0" standalone="no"?>
<!DOCTYPE svg PUBLIC "-//W3C//DTD SVG 20010904//EN"
 "http://www.w3.org/TR/2001/REC-SVG-20010904/DTD/svg10.dtd">
<svg version="1.0" xmlns="http://www.w3.org/2000/svg"
 width="62.000000pt" height="60.000000pt" viewBox="0 0 62.000000 60.000000"
 preserveAspectRatio="xMidYMid meet">

<g transform="translate(0.000000,60.000000) scale(0.100000,-0.100000)"
fill="#000000" stroke="none">
<path d="M138 540 c-65 -51 -79 -68 -96 -112 -48 -130 -47 -121 -11 -220 32
-88 34 -92 106 -149 l74 -59 98 0 98 0 76 59 c64 51 78 68 95 113 47 128 47
120 11 218 -30 85 -35 93 -93 139 -86 68 -94 71 -193 71 l-88 0 -77 -60z"/>
</g>
</svg>
